{
  "accessors": [
    {
      "bufferView": 2,
      "componentType": 5126,
      "count": 9942,
      "max": [
        30.056856155395508,
        0.21603000164031982,
        21.573272705078125
      ],
      "min": [
        -19.798709869384766,
        -36.03091049194336,
        -15.430571556091309
      ],
      "type": "VEC3"
    },
    {
      "bufferView": 2,
      "byteOffset": 119304,
      "componentType": 5126,
      "count": 9942,
      "max": [
        0.9988778829574585,
        0.999958872795105,
        0.9997490048408508
      ],
      "min": [
        -0.9998853802680969,
        -0.9999577403068542,
        -0.9996868968009949
      ],
      "type": "VEC3"
    },
    {
      "bufferView": 3,
      "componentType": 5126,
      "count": 9942,
      "max": [
        0.9953978061676025,
        0.9995145797729492,
        0.9999538064002991,
        1.0
      ],
      "min": [
        -0.9967626333236694,
        -0.9994208216667175,
        -0.9994482398033142,
        1.0
      ],
      "type": "VEC4"
    },
    {
      "bufferView": 1,
      "componentType": 5126,
      "count": 9942,
      "max": [
        0.9941499829292297,
        0.9995120167732239
      ],
      "min": [
        0.0004879999905824661,
        0.0004879999905824661
      ],
      "type": "VEC2"
    },
    {
      "bufferView": 0,
      "componentType": 5125,
      "count": 51972,
      "type": "SCALAR"
    },
    {
      "bufferView": 2,
      "byteOffset": 238608,
      "componentType": 5126,
      "count": 24507,
      "max": [
        37.25738525390625,
        3.257936954498291,
        23.306669235229492
      ],
      "min": [
        -20.548742294311523,
        -36.839073181152344,
        -18.62213134765625
      ],
      "type": "VEC3"
    },
    {
      "bufferView": 2,
      "byteOffset": 532692,
      "componentType": 5126,
      "count": 24507,
      "max": [
        0.9998917579650879,
        1.0,
        0.9999926090240479
      ],
      "min": [
        -0.9994232654571533,
        -0.999999463558197,
        -0.9998632669448853
      ],
      "type": "VEC3"
    },
    {
      "bufferView": 3,
      "byteOffset": 159072,
      "componentType": 5126,
      "count": 24507,
      "max": [
        0.9997294545173645,
        0.9999299049377441,
        0.9999374151229858,
        1.0
      ],
      "min": [
        -0.999971866607666,
        -0.9999893307685852,
        -0.9998190402984619,
        -1.0
      ],
      "type": "VEC4"
    },
    {
      "bufferView": 1,
      "byteOffset": 79536,
      "componentType": 5126,
      "count": 24507,
      "max": [
        0.9995120167732239,
        0.9962059855461121
      ],
      "min": [
        0.0004879999905824661,
        0.0004879999905824661
      ],
      "type": "VEC2"
    },
    {
      "bufferView": 0,
      "byteOffset": 207888,
      "componentType": 5125,
      "count": 113436,
      "type": "SCALAR"
    }
  ],
  "asset": {
    "extras": {
      "author": "futaba@blender (https://sketchfab.com/futaba_blender)",
      "license": "CC-BY-4.0 (http://creativecommons.org/licenses/by/4.0/)",
      "source": "https://sketchfab.com/3d-models/sci-fi-personal-space-pod-shipweekly-challenge-b158f01dd4a9416fb689ca4401856e7a",
      "title": "Sci-Fi Personal Space Pod Ship(weekly challenge)"
    },
    "generator": "Sketchfab-13.74.0",
    "version": "2.0"
  },
  "bufferViews": [
    {
      "buffer": 0,
      "byteLength": 661632,
      "name": "floatBufferViews",
      "target": 34963
    },
    {
      "buffer": 0,
      "byteLength": 275592,
      "byteOffset": 661632,
      "byteStride": 8,
      "name": "floatBufferViews",
      "target": 34962
    },
    {
      "buffer": 0,
      "byteLength": 826776,
      "byteOffset": 937224,
      "byteStride": 12,
      "name": "floatBufferViews",
      "target": 34962
    },
    {
      "buffer": 0,
      "byteLength": 551184,
      "byteOffset": 1764000,
      "byteStride": 16,
      "name": "floatBufferViews",
      "target": 34962
    }
  ],
  "buffers": [
    {
      "byteLength": 2315184,
      "uri": "scene.bin"
    }
  ],
  "images": [
    {
      "uri": "textures/material_baseColor.jpeg"
    },
    {
      "uri": "textures/material_metallicRoughness.png"
    },
    {
      "uri": "textures/material_normal.png"
    },
    {
      "uri": "textures/material_1_baseColor.png"
    },
    {
      "uri": "textures/material_1_metallicRoughness.png"
    },
    {
      "uri": "textures/material_1_emissive.jpeg"
    },
    {
      "uri": "textures/material_1_normal.png"
    }
  ],
  "materials": [
    {
      "doubleSided": true,
      "name": "material",
      "normalTexture": {
        "index": 2
      },
      "occlusionTexture": {
        "index": 1
      },
      "pbrMetallicRoughness": {
        "baseColorTexture": {
          "index": 0
        },
        "metallicRoughnessTexture": {
          "index": 1
        }
      }
    },
    {
      "alphaMode": "BLEND",
      "doubleSided": true,
      "emissiveFactor": [
        1.0,
        1.0,
        1.0
      ],
      "emissiveTexture": {
        "index": 5
      },
      "name": "material_1",
      "normalTexture": {
        "index": 6
      },
      "occlusionTexture": {
        "index": 4
      },
      "pbrMetallicRoughness": {
        "baseColorTexture": {
          "index": 3
        },
        "metallicRoughnessTexture": {
          "index": 4
        }
      }
    }
  ],
  "meshes": [
    {
      "name": "defaultMaterial",
      "primitives": [
        {
          "attributes": {
            "NORMAL": 1,
            "POSITION": 0,
            "TANGENT": 2,
            "TEXCOORD_0": 3
          },
          "indices": 4,
          "material": 0,
          "mode": 4
        }
      ]
    },
    {
      "name": "defaultMaterial",
      "primitives": [
        {
          "attributes": {
            "NORMAL": 6,
            "POSITION": 5,
            "TANGENT": 7,
            "TEXCOORD_0": 8
          },
          "indices": 9,
          "material": 1,
          "mode": 4
        }
      ]
    }
  ],
  "nodes": [
    {
      "children": [
        1
      ],
      "matrix": [
        1.0,
        0.0,
        0.0,
        0.0,
        0.0,
        2.220446049250313e-16,
        -1.0,
        0.0,
        0.0,
        1.0,
        2.220446049250313e-16,
        0.0,
        0.0,
        0.0,
        0.0,
        1.0
      ],
      "name": "Sketchfab_model"
    },
    {
      "children": [
        2
      ],
      "matrix": [
        1.0,
        0.0,
        0.0,
        0.0,
        0.0,
        -4.371139006309477e-08,
        0.999999999999999,
        0.0,
        0.0,
        -0.999999999999999,
        -4.371139006309477e-08,
        0.0,
        0.0,
        0.0,
        0.0,
        1.0
      ],
      "name": "Collada visual scene group"
    },
    {
      "children": [
        3,
        4
      ],
      "matrix": [
        0.025906,
        -0.012846,
        0.003835,
        0.0,
        0.01141,
        0.025508,
        0.008368,
        0.0,
        -0.007038,
        -0.005932,
        0.027679,
        0.0,
        0.219186,
        1.330448,
        0.58551,
        1.0
      ],
      "name": "Sphere.152_copy_low"
    },
    {
      "mesh": 0,
      "name": "defaultMaterial"
    },
    {
      "mesh": 1,
      "name": "defaultMaterial"
    }
  ],
  "samplers": [
    {
      "magFilter": 9729,
      "minFilter": 9987,
      "wrapS": 10497,
      "wrapT": 10497
    }
  ],
  "scene": 0,
  "scenes": [
    {
      "name": "Sketchfab_Scene",
      "nodes": [
        0
      ]
    }
  ],
  "textures": [
    {
      "sampler": 0,
      "source": 0
    },
    {
      "sampler": 0,
      "source": 1
    },
    {
      "sampler": 0,
      "source": 2
    },
    {
      "sampler": 0,
      "source": 3
    },
    {
      "sampler": 0,
      "source": 4
    },
    {
      "sampler": 0,
      "source": 5
    },
    {
      "sampler": 0,
      "source": 6
    }
  ]
}
